<svg xmlns="http://www.w3.org/2000/svg" width="512" height="512" viewBox="0 0 512 512" role="img" aria-label="Sierra Invoices">
  <rect width="512" height="512" rx="112" fill="#0f172a"/>
  <rect x="76" y="76" width="360" height="360" rx="72" fill="#111c33" stroke="#334155" stroke-width="10"/>
  <path d="M351 140H191c-28 0-48 20-48 45 0 21 13 38 33 45l101 36c15 5 24 17 24 31 0 15-12 27-30 27H157" fill="none" stroke="#f8fafc" stroke-linecap="round" stroke-linejoin="round" stroke-width="28"/>
  <path d="M161 372h159c28 0 49-21 49-46 0-21-14-38-34-45l-101-36c-15-5-23-17-23-31 0-15 12-27 29-27h112" fill="none" stroke="#f8fafc" stroke-linecap="round" stroke-linejoin="round" stroke-width="28"/>
</svg>
