<svg xmlns="http://www.w3.org/2000/svg" width="192" height="192" viewBox="0 0 192 192" role="img" aria-label="Sierra Invoices">
  <rect width="192" height="192" rx="40" fill="#0f172a"/>
  <rect x="28" y="28" width="136" height="136" rx="28" fill="#111c33" stroke="#334155" stroke-width="4"/>
  <path d="M132 52H72c-10 0-18 8-18 18 0 8 5 15 13 18l38 14c6 2 9 6 9 11 0 6-4 10-11 10H59" fill="none" stroke="#f8fafc" stroke-linecap="round" stroke-linejoin="round" stroke-width="10"/>
  <path d="M60 140h60c10 0 18-8 18-18 0-8-5-15-13-18L87 90c-6-2-9-6-9-11 0-6 4-10 11-10h44" fill="none" stroke="#f8fafc" stroke-linecap="round" stroke-linejoin="round" stroke-width="10"/>
</svg>
